<?xml version="1.0" encoding="UTF-8"?>
<svg version="1.1" xmlns="http://www.w3.org/2000/svg" width="266" height="213">
<path d="M0 0 C87.78 0 175.56 0 266 0 C266 70.29 266 140.58 266 213 C178.22 213 90.44 213 0 213 C0 142.71 0 72.42 0 0 Z " fill="#FEFEFE" transform="translate(0,0)"/>
<path d="M0 0 C1.43520996 0.00519653 1.43520996 0.00519653 2.89941406 0.01049805 C11.01627379 0.13379039 18.44461388 1.24353735 26.3125 3.3125 C27.15039062 3.49425781 27.98828125 3.67601562 28.8515625 3.86328125 C51.53134658 9.43841212 71.98458361 27.09735727 84.08984375 46.48828125 C97.16799726 68.42565024 101.2156915 96.03885466 95.30688477 120.87524414 C92.99578406 129.40512756 89.17004245 137.39142982 85.3125 145.3125 C83.9925 145.3125 82.6725 145.3125 81.3125 145.3125 C81.3125 146.9625 81.3125 148.6125 81.3125 150.3125 C83.6225 150.9725 85.9325 151.6325 88.3125 152.3125 C88.3125 154.6225 88.3125 156.9325 88.3125 159.3125 C83.3625 159.3125 78.4125 159.3125 73.3125 159.3125 C73.3125 159.9725 73.3125 160.6325 73.3125 161.3125 C61.61451191 172.60463952 47.76857713 180.55537327 32.3125 185.3125 C31.64379883 185.52277832 30.97509766 185.73305664 30.28613281 185.94970703 C6.25931629 193.25492351 -20.52096738 189.92867016 -42.6875 178.3125 C-67.44332214 164.28240981 -82.97763478 141.79076071 -90.55859375 114.84375 C-96.07183956 93.68806782 -92.58646384 68.96358376 -82.1640625 49.78125 C-72.50883733 33.6381222 -60.47671363 20.18053031 -43.6875 11.3125 C-43.00816406 10.920625 -42.32882813 10.52875 -41.62890625 10.125 C-29.05464957 3.20239847 -14.24397642 -0.08481571 0 0 Z " fill="#FCFCFB" transform="translate(124.6875,11.6875)"/>
<path d="M0 0 C1.43520996 0.00519653 1.43520996 0.00519653 2.89941406 0.01049805 C11.01627379 0.13379039 18.44461388 1.24353735 26.3125 3.3125 C27.15039062 3.49425781 27.98828125 3.67601562 28.8515625 3.86328125 C51.53134658 9.43841212 71.98458361 27.09735727 84.08984375 46.48828125 C97.16799726 68.42565024 101.2156915 96.03885466 95.30688477 120.87524414 C92.99578406 129.40512756 89.17004245 137.39142982 85.3125 145.3125 C83.9925 145.3125 82.6725 145.3125 81.3125 145.3125 C81.3125 146.9625 81.3125 148.6125 81.3125 150.3125 C83.2925 150.6425 85.2725 150.9725 87.3125 151.3125 C87.3125 153.6225 87.3125 155.9325 87.3125 158.3125 C86.44680389 158.29997192 85.58110779 158.28744385 84.68917847 158.27453613 C76.42557872 158.15523157 68.16195855 158.03747592 59.89831352 157.92134857 C55.65257441 157.86163241 51.40684468 157.80137121 47.16113281 157.73974609 C24.1478074 157.39713955 24.1478074 157.39713955 1.1328125 157.21875 C0.25406464 157.2122644 -0.62468323 157.20577881 -1.53005981 157.19909668 C-4.84479965 157.19655024 -7.51990349 157.2566345 -10.6875 158.3125 C-16.0107961 158.82226619 -20.34644804 158.98302598 -25.1875 156.5625 C-28.83735989 153.2776261 -30.88056891 150.56692865 -32.01171875 145.76953125 C-32.23118164 144.87435791 -32.45064453 143.97918457 -32.67675781 143.05688477 C-32.90717773 142.08936279 -33.13759766 141.12184082 -33.375 140.125 C-36.27209992 128.52103436 -39.83622434 117.21402395 -43.54736328 105.84960938 C-44.80628203 101.94399591 -46.0311083 98.02882765 -47.24609375 94.109375 C-47.46441864 93.40578354 -47.68274353 92.70219208 -47.90768433 91.97727966 C-48.77184448 89.19043193 -49.63539443 86.40341085 -50.49377441 83.61477661 C-53.14271185 74.96596987 -53.14271185 74.96596987 -56.10009766 66.41943359 C-56.33199295 65.78909714 -56.56388824 65.15876068 -56.80281067 64.50932312 C-57.44736211 62.77788832 -58.10472412 61.05123782 -58.76293945 59.32495117 C-59.66007314 56.40186362 -60.12846425 54.33563961 -59.6875 51.3125 C-56.6875 49.3125 -56.6875 49.3125 -54.62017822 49.40501404 C-52.6875 50.3125 -52.6875 50.3125 -51.59906006 52.25502014 C-51.32370422 53.10551437 -51.04834839 53.95600861 -50.76464844 54.83227539 C-50.44461853 55.79319595 -50.12458862 56.75411652 -49.79486084 57.74415588 C-49.46552551 58.788936 -49.13619019 59.83371613 -48.796875 60.91015625 C-48.44739807 61.97415146 -48.09792114 63.03814667 -47.737854 64.13438416 C-46.62219044 67.54308358 -45.5296768 70.95871124 -44.4375 74.375 C-43.68640564 76.6834345 -42.93382042 78.99138449 -42.1796875 81.29882812 C-40.33160472 86.96453779 -38.5024876 92.63610767 -36.6875 98.3125 C-37.26619151 93.45596949 -38.26880693 89.08408379 -39.83203125 84.453125 C-40.04309006 83.82323669 -40.25414886 83.19334839 -40.47160339 82.54437256 C-41.14210489 80.54846542 -41.82103809 78.55554266 -42.5 76.5625 C-42.94388368 75.24236368 -43.38724689 73.92205223 -43.83007812 72.6015625 C-46.11257197 65.82007951 -48.46925681 59.07360364 -50.99487305 52.37792969 C-51.6875 50.3125 -51.6875 50.3125 -51.6875 48.3125 C-49.7075 48.3125 -47.7275 48.3125 -45.6875 48.3125 C-45.34138672 49.78396484 -45.34138672 49.78396484 -44.98828125 51.28515625 C-42.98500279 59.63406169 -40.64903515 67.7518051 -37.859375 75.87109375 C-36.34554325 80.31671299 -34.99290472 84.80195525 -33.6875 89.3125 C-34.01621094 87.99765625 -34.01621094 87.99765625 -34.3515625 86.65625 C-34.84654567 84.67631733 -35.341443 82.69636285 -35.83496094 80.71606445 C-36.97512042 76.14505244 -38.12750475 71.57734343 -39.2890625 67.01171875 C-39.56153809 65.93535156 -39.83401367 64.85898438 -40.11474609 63.75 C-40.65914365 61.59954889 -41.20630253 59.44979476 -41.75634766 57.30078125 C-42.00690918 56.30820313 -42.2574707 55.315625 -42.515625 54.29296875 C-42.7415332 53.40504639 -42.96744141 52.51712402 -43.20019531 51.60229492 C-43.6875 49.3125 -43.6875 49.3125 -43.6875 46.3125 C-42.0375 46.3125 -40.3875 46.3125 -38.6875 46.3125 C-36.00125922 54.08454841 -33.46738579 61.80255921 -31.546875 69.8046875 C-28.10399275 83.85790688 -24.0068928 97.67572223 -19.52661133 111.43017578 C-16.9648559 119.32928538 -14.67999918 127.25074345 -12.6875 135.3125 C-9.04168402 135.3418908 -5.39589913 135.35942874 -1.75 135.375 C-0.72841797 135.38337891 0.29316406 135.39175781 1.34570312 135.40039062 C2.35439453 135.40361328 3.36308594 135.40683594 4.40234375 135.41015625 C5.31878662 135.41539307 6.23522949 135.42062988 7.17944336 135.42602539 C9.68226066 135.33533654 12.0762027 135.13243698 14.55834961 134.83984375 C19.46316868 134.26442162 24.35700585 133.99635764 29.2890625 133.77734375 C30.21737885 133.73436661 31.14569519 133.69138947 32.10214233 133.64710999 C34.05679786 133.55746617 36.01152203 133.46930777 37.96630859 133.38256836 C40.908765 133.2512821 43.85085164 133.11326767 46.79296875 132.97460938 C57.30861749 132.49220657 67.78514521 132.17341281 78.3125 132.3125 C78.745625 134.0140625 78.745625 134.0140625 79.1875 135.75 C79.55875 136.925625 79.93 138.10125 80.3125 139.3125 C80.9725 139.6425 81.6325 139.9725 82.3125 140.3125 C82.22548828 139.47332031 82.22548828 139.47332031 82.13671875 138.6171875 C81.74008517 131.56844221 83.53231433 126.12926391 86.12109375 119.609375 C88.01075953 114.38026707 88.43955549 109.4525145 88.4453125 103.91796875 C88.44724609 102.11295898 88.44724609 102.11295898 88.44921875 100.27148438 C88.44535156 99.02689453 88.44148437 97.78230469 88.4375 96.5 C88.44136719 95.26701172 88.44523438 94.03402344 88.44921875 92.76367188 C88.42350727 68.68486983 80.33989668 49.04751016 63.6796875 31.546875 C44.89765526 13.69573065 22.81355907 6.59997715 -2.58691406 6.77416992 C-23.54184693 7.3572305 -40.9028374 14.55925485 -56.6875 28.3125 C-57.65429688 29.06917969 -58.62109375 29.82585938 -59.6171875 30.60546875 C-63.06265 33.47714203 -65.63796334 36.81139486 -68.25 40.4375 C-68.72961182 41.10128662 -69.20922363 41.76507324 -69.70336914 42.44897461 C-76.46904683 52.02723292 -79.75109601 62.0131023 -82.6875 73.3125 C-82.864021 73.92198486 -83.04054199 74.53146973 -83.22241211 75.15942383 C-86.25729071 89.20907965 -84.39260924 105.85471861 -79.6875 119.3125 C-79.47319336 119.94687988 -79.25888672 120.58125977 -79.03808594 121.23486328 C-71.06466013 144.48778702 -54.52876877 161.51704756 -32.6875 172.3125 C-14.72076814 180.30445843 9.10686041 183.6226452 28.1875 177.25 C30.58385124 176.32431481 32.9599729 175.34449255 35.3125 174.3125 C36.70819549 173.76066706 38.10539693 173.21263118 39.50390625 172.66796875 C45.66847383 170.19283352 51.05516421 167.84100219 56.0625 163.375 C60.45974248 159.54982596 64.35084492 159.72058852 70.00390625 160.06640625 C71.14666016 160.18822266 71.14666016 160.18822266 72.3125 160.3125 C59.77663429 177.2727889 38.31321232 184.69240223 18.4140625 188.9296875 C-6.4479654 191.99830052 -32.34131286 186.72826407 -52.6328125 171.75 C-73.92661538 154.75852558 -87.39231067 133.83254279 -92.3359375 106.76171875 C-95.00345215 80.59043616 -88.41577921 54.87784929 -71.6875 34.3125 C-63.43135425 24.8278475 -54.84663102 17.20673151 -43.6875 11.3125 C-43.00816406 10.920625 -42.32882813 10.52875 -41.62890625 10.125 C-29.05464957 3.20239847 -14.24397642 -0.08481571 0 0 Z " fill="#CDCFD2" transform="translate(124.6875,11.6875)"/>
<path d="M0 0 C1.43520996 0.00519653 1.43520996 0.00519653 2.89941406 0.01049805 C11.01627379 0.13379039 18.44461388 1.24353735 26.3125 3.3125 C27.15039062 3.49425781 27.98828125 3.67601562 28.8515625 3.86328125 C51.53134658 9.43841212 71.98458361 27.09735727 84.08984375 46.48828125 C97.18992491 68.46243181 101.22268135 96.14136098 95.30249023 121.01806641 C93.14444339 128.9129135 89.55883222 136.33638279 85.3125 143.3125 C84.6525 143.6425 83.9925 143.9725 83.3125 144.3125 C80.81837818 135.27641931 82.71121542 128.19721673 86.12109375 119.609375 C88.01075953 114.38026707 88.43955549 109.4525145 88.4453125 103.91796875 C88.44724609 102.11295898 88.44724609 102.11295898 88.44921875 100.27148438 C88.44535156 99.02689453 88.44148437 97.78230469 88.4375 96.5 C88.44136719 95.26701172 88.44523438 94.03402344 88.44921875 92.76367188 C88.42350727 68.68486983 80.33989668 49.04751016 63.6796875 31.546875 C44.89765526 13.69573065 22.81355907 6.59997715 -2.58691406 6.77416992 C-23.54184693 7.3572305 -40.9028374 14.55925485 -56.6875 28.3125 C-57.65429688 29.06917969 -58.62109375 29.82585938 -59.6171875 30.60546875 C-63.06265 33.47714203 -65.63796334 36.81139486 -68.25 40.4375 C-68.72961182 41.10128662 -69.20922363 41.76507324 -69.70336914 42.44897461 C-76.46904683 52.02723292 -79.75109601 62.0131023 -82.6875 73.3125 C-82.864021 73.92198486 -83.04054199 74.53146973 -83.22241211 75.15942383 C-86.25729071 89.20907965 -84.39260924 105.85471861 -79.6875 119.3125 C-79.47319336 119.94687988 -79.25888672 120.58125977 -79.03808594 121.23486328 C-71.06466013 144.48778702 -54.52876877 161.51704756 -32.6875 172.3125 C-14.72076814 180.30445843 9.10686041 183.6226452 28.1875 177.25 C30.58385124 176.32431481 32.9599729 175.34449255 35.3125 174.3125 C36.70819549 173.76066706 38.10539693 173.21263118 39.50390625 172.66796875 C45.66847383 170.19283352 51.05516421 167.84100219 56.0625 163.375 C60.45974248 159.54982596 64.35084492 159.72058852 70.00390625 160.06640625 C71.14666016 160.18822266 71.14666016 160.18822266 72.3125 160.3125 C59.77663429 177.2727889 38.31321232 184.69240223 18.4140625 188.9296875 C-6.4479654 191.99830052 -32.34131286 186.72826407 -52.6328125 171.75 C-73.92661538 154.75852558 -87.39231067 133.83254279 -92.3359375 106.76171875 C-95.00345215 80.59043616 -88.41577921 54.87784929 -71.6875 34.3125 C-63.43135425 24.8278475 -54.84663102 17.20673151 -43.6875 11.3125 C-43.00816406 10.920625 -42.32882813 10.52875 -41.62890625 10.125 C-29.05464957 3.20239847 -14.24397642 -0.08481571 0 0 Z " fill="#6A3131" transform="translate(124.6875,11.6875)"/>
<path d="M0 0 C1.8125 0.5 1.8125 0.5 4 2 C5.88927057 5.6503101 6.89579642 9.60402641 7.9375 13.5625 C9.52241377 18.69016221 11.82864364 23.4543471 16 27 C16.53625 26.731875 17.0725 26.46375 17.625 26.1875 C18.40875 25.795625 19.1925 25.40375 20 25 C20.99 24.46375 21.98 23.9275 23 23.375 C26 22 26 22 30 22 C29.01 25.3 28.02 28.6 27 32 C27.66 31.67 28.32 31.34 29 31 C30.51827131 30.90241735 32.04110345 30.8702382 33.5625 30.875 C34.46226562 30.87757812 35.36203125 30.88015625 36.2890625 30.8828125 C38.74956445 30.98917426 41.01769995 31.32194873 43.4375 31.75 C50.11540579 32.618961 56.5357645 29.64282366 62 26 C63.32 26 64.64 26 66 26 C66.64748591 30.01954123 67.13870476 33.92421388 67 38 C64.6875 40.9375 64.6875 40.9375 62 43 C61.649375 43.9075 61.29875 44.815 60.9375 45.75 C60.4734375 46.86375 60.4734375 46.86375 60 48 C58.66666667 48.33333333 57.33333333 48.66666667 56 49 C55.71125 49.763125 55.4225 50.52625 55.125 51.3125 C53.53381145 55.11367264 51.62101028 56.09074004 48 58 C41.23726747 60.21257608 34.17316583 61.35992821 27.5 58.5 C26.675 58.005 25.85 57.51 25 57 C25.28875 58.258125 25.5775 59.51625 25.875 60.8125 C26.11863281 61.87404297 26.11863281 61.87404297 26.3671875 62.95703125 C26.98007723 65.27742974 26.98007723 65.27742974 29 68 C28.625 70.6875 28.625 70.6875 28 73 C21.64800117 73.20675584 15.96447336 73.36093737 10 71 C8.9805881 70.01979625 7.97753644 69.02196992 7 68 C4.39388923 67.27802838 4.39388923 67.27802838 2 67 C2 64.875 2 64.875 3 62 C4.97463408 60.33603033 7.01772995 58.92607052 9.1875 57.52734375 C11.2928191 55.75324942 11.63098959 54.68109123 12 52 C10.9275 52.0825 9.855 52.165 8.75 52.25 C4.27856282 51.95190419 3.90246594 51.17457212 1 48 C-0.794375 47.38125 -0.794375 47.38125 -2.625 46.75 C-6 45 -6 45 -6.82421875 43.140625 C-7.3125 41 -7.3125 41 -7.61328125 38.9375 C-7.93496754 36.68468135 -7.93496754 36.68468135 -10 34 C-10.1875 30.375 -10.1875 30.375 -10 27 C-9.67 26.67 -9.34 26.34 -9 26 C-8.94604522 24.37536158 -8.90722805 22.75021459 -8.875 21.125 C-8.41552509 15.04884038 -6.100633 11.28961026 -2.59375 6.41015625 C-1.11629906 4.17587382 -0.43631415 2.61182497 0 0 Z " fill="#682D2C" transform="translate(104,36)"/>
<path d="M0 0 C1.93699646 0.92242432 1.93699646 0.92242432 3.05184937 2.9576416 C3.48600914 4.30580963 3.48600914 4.30580963 3.92893982 5.68121338 C4.26752518 6.70411972 4.60611053 7.72702606 4.95495605 8.78092957 C5.30867783 9.90527908 5.6623996 11.0296286 6.02684021 12.18804932 C6.59857216 13.93554222 6.59857216 13.93554222 7.18185425 15.71833801 C8.00096067 18.22744255 8.81402583 20.73764017 9.61759949 23.25167847 C10.87112729 27.17107141 12.14946537 31.08205261 13.43357849 34.99151611 C13.8623331 36.29776094 14.29104403 37.60402009 14.7197113 38.91029358 C14.93163116 39.55605661 15.14355103 40.20181965 15.3618927 40.86715126 C16.21617051 43.47404527 17.0665387 46.08220759 17.91698837 48.69035244 C21.04482981 58.27968739 24.21346066 67.85368391 27.50587463 77.38787842 C28.03990459 78.94272134 28.56756373 80.49976816 29.08857727 82.059021 C29.80163249 84.19218485 30.53435838 86.31751762 31.27293396 88.44195557 C31.67044861 89.60831543 32.06796326 90.77467529 32.4775238 91.97637939 C34.7312113 96.52560105 38.30586387 99.02646048 42.93699646 100.92242432 C45.86907222 101.24264536 45.86907222 101.24264536 49.14134216 101.22540283 C50.40239273 101.24204483 51.6634433 101.25868683 52.96270752 101.27583313 C54.34606371 101.2844203 55.72942046 101.29291677 57.11277771 101.30133057 C58.55738392 101.31755569 60.00197964 101.33474066 61.44656372 101.35282898 C65.2732992 101.39859352 69.10005132 101.43326193 72.92692566 101.46502686 C78.93300845 101.51648096 84.93895072 101.58318629 90.94486618 101.65116501 C92.43061252 101.66792857 93.91636345 101.68428918 95.40211868 101.7002449 C110.92227992 101.8700502 126.42705951 102.34503657 141.93699646 102.92242432 C141.93699646 104.90242432 141.93699646 106.88242432 141.93699646 108.92242432 C141.07130035 108.90989624 140.20560425 108.89736816 139.31367493 108.88446045 C131.05007518 108.76515588 122.78645501 108.64740023 114.52280998 108.53127289 C110.27707087 108.47155672 106.03134114 108.41129553 101.78562927 108.34967041 C78.77230386 108.00706386 78.77230386 108.00706386 55.75730896 107.82867432 C54.8785611 107.82218872 53.99981323 107.81570312 53.09443665 107.809021 C49.77969681 107.80647456 47.10459297 107.86655881 43.93699646 108.92242432 C38.61370036 109.43219051 34.27804842 109.59295029 29.43699646 107.17242432 C25.78713657 103.88755041 23.74392755 101.17685297 22.61277771 96.37945557 C22.28358337 95.03669556 22.28358337 95.03669556 21.94773865 93.66680908 C21.71731873 92.69928711 21.4868988 91.73176514 21.24949646 90.73492432 C18.35239654 79.13095868 14.78827212 67.82394826 11.07713318 56.45953369 C9.81821443 52.55392022 8.59338816 48.63875196 7.37840271 44.71929932 C7.16007782 44.01570786 6.94175293 43.31211639 6.71681213 42.58720398 C5.85265198 39.80035625 4.98910203 37.01333517 4.13072205 34.22470093 C1.48178461 25.57589419 1.48178461 25.57589419 -1.4756012 17.02935791 C-1.82344414 16.08385323 -1.82344414 16.08385323 -2.17831421 15.11924744 C-2.82286565 13.38781263 -3.48022766 11.66116214 -4.13844299 9.93487549 C-5.03557668 7.01178794 -5.50396779 4.94556392 -5.06300354 1.92242432 C-2.06300354 -0.07757568 -2.06300354 -0.07757568 0 0 Z " fill="#682E2C" transform="translate(70.06300354003906,61.07757568359375)"/>
<path d="M0 0 C1.96621651 1.98724556 3.7522505 3.98913265 5.44140625 6.21484375 C5.11140625 7.20484375 4.78140625 8.19484375 4.44140625 9.21484375 C-5.95359375 11.19484375 -5.95359375 11.19484375 -16.55859375 13.21484375 C-11.24242066 13.21484375 -7.53935744 13.09884684 -2.55859375 12.21484375 C-0.16661494 12.03023679 2.23074526 11.90667353 4.62890625 11.83984375 C6.44455078 11.76636719 6.44455078 11.76636719 8.296875 11.69140625 C11.44140625 12.21484375 11.44140625 12.21484375 13.3671875 14.73828125 C13.72167969 15.55554688 14.07617188 16.3728125 14.44140625 17.21484375 C6.15493682 18.7228055 -1.97054162 19.52661399 -10.37646484 19.87280273 C-13.30560623 19.99977743 -16.14552399 20.13105147 -19.0234375 20.71484375 C-22.86393887 21.4722924 -26.71574953 21.50478001 -30.62109375 21.65234375 C-38.70558618 21.99854427 -46.71767481 22.64486164 -54.75805664 23.55444336 C-59.72759686 24.10075683 -64.5581561 24.30046768 -69.55859375 24.21484375 C-65.53931518 19.73118639 -61.21536055 17.04927097 -55.93359375 14.21484375 C-55.12744629 13.77696533 -54.32129883 13.33908691 -53.49072266 12.88793945 C-12.87702192 -8.98442598 -12.87702192 -8.98442598 0 0 Z " fill="#E6A737" transform="translate(186.55859375,120.78515625)"/>
<path d="M0 0 C1.24233398 -0.01740234 1.24233398 -0.01740234 2.50976562 -0.03515625 C9.02997405 -0.00383419 12.26034471 1.50525851 17.125 5.9375 C19.3125 8.375 19.3125 8.375 19.3125 10.375 C19.9725 10.375 20.6325 10.375 21.3125 10.375 C22.9375 12.875 22.9375 12.875 24.3125 15.375 C23.11496094 15.40078125 21.91742188 15.4265625 20.68359375 15.453125 C-1.80339838 16.15163735 -19.94257235 23.08676004 -37.9375 36.625 C-38.51081055 37.0492627 -39.08412109 37.47352539 -39.67480469 37.91064453 C-41.4537707 39.24929158 -41.4537707 39.24929158 -43.6875 41.375 C-43.9111068 44.3004644 -43.9111068 44.3004644 -42.6875 46.375 C-44.0075 46.375 -45.3275 46.375 -46.6875 46.375 C-48.43289848 41.13880455 -45.74441174 36.30449539 -43.6875 31.375 C-41.61150638 27.5061028 -39.24089208 23.94347008 -36.6875 20.375 C-36.0790625 19.49585937 -35.470625 18.61671875 -34.84375 17.7109375 C-26.24211135 6.04232114 -14.38717017 -0.20439547 0 0 Z " fill="#CBCED0" transform="translate(161.6875,99.625)"/>
<path d="M0 0 C0 0.33 0 0.66 0 1 C-6.27 1.33 -12.54 1.66 -19 2 C-19.33 2.99 -19.66 3.98 -20 5 C-14.72 5 -9.44 5 -4 5 C-4 5.33 -4 5.66 -4 6 C-5.22332031 6.01417969 -6.44664062 6.02835938 -7.70703125 6.04296875 C-29.7915962 6.55810576 -48.99319587 11.77650396 -66.046875 26.3359375 C-68 28 -68 28 -71 30 C-71.99 29.34 -72.98 28.68 -74 28 C-71.78946413 19.64908672 -62.58379669 15.11197038 -55.65625 10.95703125 C-38.00149848 1.15576566 -19.81474053 -0.52484032 0 0 Z " fill="#69302F" transform="translate(136,12)"/>
<path d="M0 0 C0.83595703 0.00451172 1.67191406 0.00902344 2.53320312 0.01367188 C4.58466649 0.02539452 6.63609273 0.04332797 8.6875 0.0625 C7.6975 1.0525 6.7075 2.0425 5.6875 3.0625 C6.6775 3.7225 7.6675 4.3825 8.6875 5.0625 C6.75886108 5.14552368 6.75886108 5.14552368 4.79125977 5.23022461 C-0.01161088 5.43778357 -4.81429877 5.64934015 -9.61694336 5.86206055 C-11.68948729 5.95330868 -13.76207827 6.04349493 -15.8347168 6.13256836 C-18.82614142 6.26131686 -21.81737202 6.39397379 -24.80859375 6.52734375 C-25.72458847 6.56593002 -26.64058319 6.6045163 -27.58433533 6.64427185 C-32.52546632 6.86861818 -37.39829765 7.26933776 -42.30943298 7.85203552 C-44.95369556 8.12987113 -47.56501148 8.17534279 -50.22265625 8.16015625 C-51.23134766 8.15693359 -52.24003906 8.15371094 -53.27929688 8.15039062 C-54.30087891 8.14201172 -55.32246094 8.13363281 -56.375 8.125 C-57.43138672 8.12048828 -58.48777344 8.11597656 -59.57617188 8.11132812 C-62.15500908 8.09965918 -64.73372294 8.08328885 -67.3125 8.0625 C-67.6425 6.7425 -67.9725 5.4225 -68.3125 4.0625 C-66.9925 4.0625 -65.6725 4.0625 -64.3125 4.0625 C-64.3125 4.7225 -64.3125 5.3825 -64.3125 6.0625 C-63.075 5.77375 -61.8375 5.485 -60.5625 5.1875 C-47.53330307 2.6000116 -34.09657343 1.90710902 -20.84814453 1.40405273 C-16.30859274 1.22780568 -16.30859274 1.22780568 -11.828125 0.5390625 C-7.90117777 -0.20486229 -3.9860589 -0.04089879 0 0 Z " fill="#F4F2EA" transform="translate(179.3125,139.9375)"/>
<path d="M0 0 C2.43462311 2.16580014 3.53223019 3.88376727 4.5 6.984375 C4.7475 7.75523438 4.995 8.52609375 5.25 9.3203125 C5.4975 10.12210938 5.745 10.92390625 6 11.75 C7.75193022 17.31602831 9.65610076 22.6556471 12 28 C12.65252017 29.99553786 13.2738533 31.99288859 13.86328125 34.0078125 C15.61451026 37.07697675 18.02012107 39.17603556 21 41 C23.80102824 41.48926582 26.00428671 41.70033032 28.79296875 41.671875 C29.53321793 41.6843074 30.2734671 41.69673981 31.03614807 41.70954895 C33.42025825 41.74516295 35.80314798 41.74763398 38.1875 41.75 C39.81871904 41.76936497 41.44990829 41.79142375 43.08105469 41.81616211 C46.27520055 41.86387086 49.46924188 41.90244204 52.66357422 41.93505859 C58.0337892 42.00156688 63.38927482 42.24232842 68.75 42.5625 C69.51594482 42.60665039 70.28188965 42.65080078 71.07104492 42.69628906 C72.71429524 42.79312451 74.35720908 42.89566058 76 43 C76 43.33 76 43.66 76 44 C68.13471512 44.10150834 60.2695995 44.17151159 52.40380859 44.21972656 C49.72836625 44.23756825 47.05377984 44.26711049 44.37841797 44.30175781 C40.53081429 44.35033506 36.68379213 44.37298365 32.8359375 44.390625 C31.64197357 44.41127014 30.44800964 44.43191528 29.21786499 44.45318604 C22.8494138 44.45490286 18.75342892 44.43523623 14 40 C10.85730368 36.71970673 9.68100999 32.7372972 8.30078125 28.49609375 C8.0608696 27.77639908 7.82095795 27.05670441 7.57377625 26.31520081 C7.07025491 24.79929277 6.57039054 23.28216571 6.07397461 21.76391602 C5.31301903 19.4390857 4.53928845 17.11880311 3.76367188 14.79882812 C3.27528152 13.32316803 2.78762586 11.84726453 2.30078125 10.37109375 C2.06958084 9.67729111 1.83838043 8.98348846 1.60017395 8.2686615 C0.66293004 5.38609794 0 3.05293689 0 0 Z " fill="#F3F3F3" transform="translate(91,118)"/>
<path d="M0 0 C14.62468726 -0.34592601 27.31214318 -0.59184204 41 5 C39.921875 6.54296875 39.921875 6.54296875 38 8 C35.015625 7.92578125 35.015625 7.92578125 31.25 7.3125 C29.82881416 7.0982424 28.40687869 6.88891977 26.984375 6.68359375 C26.20126953 6.56999512 25.41816406 6.45639648 24.61132812 6.33935547 C19.59052453 5.68687632 14.54466822 5.29460835 9.5 4.875 C7.94974121 4.74411987 7.94974121 4.74411987 6.36816406 4.6105957 C3.91231653 4.40442528 1.45629017 4.20081657 -1 4 C-0.67 2.68 -0.34 1.36 0 0 Z " fill="#6A3230" transform="translate(117,13)"/>
<path d="M0 0 C0.33 0 0.66 0 1 0 C1 2.31 1 4.62 1 7 C-3.95 7 -8.9 7 -14 7 C-14.33 7.66 -14.66 8.32 -15 9 C-16.03398926 8.8928064 -16.03398926 8.8928064 -17.08886719 8.78344727 C-25.49211196 7.98931428 -33.81396907 7.88239025 -42.25 7.9375 C-43.59244622 7.94253214 -44.9348943 7.94709198 -46.27734375 7.95117188 C-49.5182781 7.96282991 -52.75911369 7.97919226 -56 8 C-56 7.34 -56 6.68 -56 6 C-57.96066406 6.01740234 -57.96066406 6.01740234 -59.9609375 6.03515625 C-71.68215321 6.10573277 -83.30620586 5.79957567 -95 5 C-95 4.67 -95 4.34 -95 4 C-79.1241827 3.93535989 -63.2574699 4.09780758 -47.3840332 4.37231445 C-43.54318657 4.43782944 -39.702275 4.49733135 -35.86132812 4.55664062 C-23.88291836 4.7535595 -11.93942043 4.95672481 0 6 C0 4.02 0 2.04 0 0 Z " fill="#CAB7B6" transform="translate(212,164)"/>
<path d="M0 0 C0 0.33 0 0.66 0 1 C-6.27 1.33 -12.54 1.66 -19 2 C-19.33 2.99 -19.66 3.98 -20 5 C-14.72 5 -9.44 5 -4 5 C-4 5.33 -4 5.66 -4 6 C-4.56396484 6.02505615 -5.12792969 6.0501123 -5.70898438 6.07592773 C-8.30614882 6.19318301 -10.9030631 6.31531266 -13.5 6.4375 C-14.386875 6.47681641 -15.27375 6.51613281 -16.1875 6.55664062 C-20.34968735 6.7555687 -24.43390929 7.02529389 -28.55859375 7.62890625 C-30.26208984 7.81259766 -30.26208984 7.81259766 -32 8 C-33.02019573 7.0206121 -34.02149805 6.02104551 -35 5 C-38.64541845 5.23477199 -38.64541845 5.23477199 -42 6 C-30.20894207 -1.86070529 -13.48642627 -0.48925224 0 0 Z " fill="#7C4C4B" transform="translate(136,12)"/>
<path d="M0 0 C0.99 0 1.98 0 3 0 C6.63582418 9.18187824 9.94737663 18.44075496 13.0769043 27.80517578 C13.82177279 30.02766758 14.57780876 32.24617732 15.33398438 34.46484375 C15.81318457 35.89299965 16.29172516 37.32137708 16.76953125 38.75 C16.99445755 39.40524658 17.21938385 40.06049316 17.4511261 40.7355957 C18.61657768 44.26665723 19.2534065 47.27922925 19 51 C17 50 17 50 16.15879822 48.07093811 C15.88201736 47.22647629 15.60523651 46.38201447 15.32006836 45.51196289 C15.00311508 44.55749771 14.6861618 43.60303253 14.35960388 42.61964417 C14.02308304 41.58113815 13.68656219 40.54263214 13.33984375 39.47265625 C12.9899086 38.41340439 12.63997345 37.35415253 12.2794342 36.26280212 C11.15839778 32.8649776 10.04764638 29.46389645 8.9375 26.0625 C7.82175039 22.66537454 6.70392766 19.2689414 5.58485413 15.87290955 C4.88799462 13.75582612 4.19346894 11.63797285 3.50144958 9.51930237 C3.18764847 8.56168503 2.87384735 7.60406769 2.55053711 6.61743164 C2.27455185 5.77217422 1.99856659 4.92691681 1.71421814 4.05604553 C1.03994087 1.97242055 1.03994087 1.97242055 0 0 Z " fill="#ECEBEB" transform="translate(70,60)"/>
<path d="M0 0 C1.921875 0.8984375 1.921875 0.8984375 2.96875 2.859375 C3.20078125 3.65601562 3.4328125 4.45265625 3.671875 5.2734375 C3.91421875 6.06492187 4.1565625 6.85640625 4.40625 7.671875 C4.921875 9.8984375 4.921875 9.8984375 4.921875 12.8984375 C3.62042698 13.93959591 2.28348811 14.93729884 0.921875 15.8984375 C0.261875 16.8884375 -0.398125 17.8784375 -1.078125 18.8984375 C-1.75422923 17.00594931 -2.41862939 15.1092773 -3.078125 13.2109375 C-3.449375 12.15519531 -3.820625 11.09945312 -4.203125 10.01171875 C-5.03081957 7.06675193 -5.50193845 4.92340601 -5.078125 1.8984375 C-2.078125 -0.1015625 -2.078125 -0.1015625 0 0 Z " fill="#6B3333" transform="translate(70.078125,61.1015625)"/>
<path d="M0 0 C0.33 0 0.66 0 1 0 C1.23187012 0.90242432 1.46374023 1.80484863 1.70263672 2.73461914 C2.57038081 6.10997452 3.43896562 9.48511129 4.30810547 12.86010742 C4.68278724 14.31575096 5.05714204 15.77147871 5.43115234 17.22729492 C5.97145233 19.33014249 6.51296093 21.4326758 7.0546875 23.53515625 C7.37937012 24.797229 7.70405273 26.05930176 8.03857422 27.35961914 C8.69791722 29.85618173 9.40259069 32.34108194 10.14501953 34.81420898 C10.95818864 37.84420432 11.14150453 39.14623868 10 42 C8.575929 37.78449779 7.17248748 33.5626792 5.77929688 29.33691406 C4.96791074 26.90377242 4.13264283 24.4795513 3.296875 22.0546875 C2.73887413 20.39086268 2.18157167 18.72680345 1.625 17.0625 C1.21290283 15.89303833 1.21290283 15.89303833 0.79248047 14.69995117 C-0.97080416 9.34096007 -1.07292407 5.54764858 0 0 Z " fill="#EBEBEA" transform="translate(81,61)"/>
<path d="M0 0 C0 0.33 0 0.66 0 1 C1.918125 1.185625 1.918125 1.185625 3.875 1.375 C7.75 1.75 7.75 1.75 10 4 C9.67 4.99 9.34 5.98 9 7 C8.34 6.01 7.68 5.02 7 4 C3.84998418 3.59500316 3.84998418 3.59500316 0.25 3.75 C-0.96171875 3.76546875 -2.1734375 3.7809375 -3.421875 3.796875 C-6.92627336 3.93057084 -6.92627336 3.93057084 -10.0546875 4.51171875 C-13.21553673 5.03573222 -16.17382324 5.09806863 -19.375 5.0625 C-20.96441406 5.04896484 -20.96441406 5.04896484 -22.5859375 5.03515625 C-23.38257813 5.02355469 -24.17921875 5.01195312 -25 5 C-21.52758821 3.01822652 -18.08286042 2.21062445 -14.1875 1.375 C-13.00542969 1.11460937 -11.82335937 0.85421875 -10.60546875 0.5859375 C-7.00179077 0.00029103 -3.64377252 -0.10264148 0 0 Z " fill="#F4ECD7" transform="translate(191,130)"/>
<path d="M0 0 C2.79224073 -0.08071788 5.58216566 -0.14035408 8.375 -0.1875 C9.1690625 -0.21263672 9.963125 -0.23777344 10.78125 -0.26367188 C12.85586148 -0.29004405 14.93100865 -0.15486462 17 0 C17.66 0.99 18.32 1.98 19 3 C18 4 18 4 16.14233398 4.11352539 C15.35157471 4.10828857 14.56081543 4.10305176 13.74609375 4.09765625 C12.89208984 4.09443359 12.03808594 4.09121094 11.15820312 4.08789062 C10.26037109 4.07951172 9.36253906 4.07113281 8.4375 4.0625 C7.53580078 4.05798828 6.63410156 4.05347656 5.70507812 4.04882812 C3.46998686 4.03700225 1.23502563 4.0205222 -1 4 C-0.67 2.68 -0.34 1.36 0 0 Z " fill="#5E2321" transform="translate(117,13)"/>
<path d="M0 0 C0.99 0.66 1.98 1.32 3 2 C2.67 3.65 2.34 5.3 2 7 C-3.13373162 5.60961435 -8.03739743 3.91539047 -13 2 C-12.3915625 1.85820312 -11.783125 1.71640625 -11.15625 1.5703125 C-8.89726994 1.03571396 -8.89726994 1.03571396 -6.5 -0.125 C-3.71712371 -1.0990067 -2.69467022 -1.07786809 0 0 Z " fill="#743E3D" transform="translate(162,19)"/>
<path d="M0 0 C0.66 0.33 1.32 0.66 2 1 C1.67 1.33 1.34 1.66 1 2 C1.66 2.66 2.32 3.32 3 4 C1.07010782 5.19982444 -0.86919228 6.38452818 -2.8125 7.5625 C-4.43091797 8.55443359 -4.43091797 8.55443359 -6.08203125 9.56640625 C-9 11 -9 11 -12 10 C-10.75160501 8.894019 -9.50120766 7.79029799 -8.25 6.6875 C-7.55390625 6.07261719 -6.8578125 5.45773438 -6.140625 4.82421875 C-4.14885494 3.12685266 -2.11101085 1.54522191 0 0 Z " fill="#F5F3E8" transform="translate(128,132)"/>
<path d="M0 0 C0.268125 0.556875 0.53625 1.11375 0.8125 1.6875 C2.63975453 5.24583776 4.34110357 8.34110357 7.1875 11.1875 C7.785625 11.785625 8.38375 12.38375 9 13 C9 13.66 9 14.32 9 15 C4.57883696 13.64908907 2.51923342 11.86882275 0 8 C-1.04701353 4.6173409 -1.13517413 3.40552239 0 0 Z " fill="#EDEAEA" transform="translate(102,146)"/>
<path d="M0 0 C0.33 1.32 0.66 2.64 1 4 C-3.455 4.495 -3.455 4.495 -8 5 C-8.33 3.68 -8.66 2.36 -9 1 C-2.25 -1.125 -2.25 -1.125 0 0 Z " fill="#642928" transform="translate(103,17)"/>
<path d="M0 0 C0 3 0 3 -2.37109375 5.62890625 C-3.38586139 6.61441454 -4.40835389 7.59201649 -5.4375 8.5625 C-9.17489401 11.92358607 -9.17489401 11.92358607 -12 16 C-12.66 15.67 -13.32 15.34 -14 15 C-9.79211991 9.24454091 -5.58490476 4.44512827 0 0 Z " fill="#E9E6E6" transform="translate(70,37)"/>
<path d="M0 0 C0 0.33 0 0.66 0 1 C-5.96674616 2.32594359 -11.92583615 2.0884587 -18 2 C-11.70963342 -1.23090107 -6.87120554 -0.97304654 0 0 Z " fill="#EBD3A0" transform="translate(184,133)"/>
<path d="M0 0 C-0.60990891 3.55780196 -1.5783681 6.6828589 -3 10 C-5 8 -5 8 -5.3125 5.5625 C-5 3 -5 3 -3.625 1.1875 C-2 0 -2 0 0 0 Z " fill="#5C2222" transform="translate(75,74)"/>
<path d="M0 0 C0.66 0 1.32 0 2 0 C1.67 1.65 1.34 3.3 1 5 C-2.63 5 -6.26 5 -10 5 C-10 4.67 -10 4.34 -10 4 C-8.02 4 -6.04 4 -4 4 C-4 3.34 -4 2.68 -4 2 C-2.68 2 -1.36 2 0 2 C0 1.34 0 0.68 0 0 Z " fill="#734544" transform="translate(131,104)"/>
<path d="M0 0 C6.75 0.75 6.75 0.75 9 3 C4.375 5.125 4.375 5.125 1 4 C0.3125 1.9375 0.3125 1.9375 0 0 Z " fill="#602424" transform="translate(149,16)"/>
<path d="M0 0 C0.66 0.33 1.32 0.66 2 1 C0.68 2.32 -0.64 3.64 -2 5 C-1.34 5.66 -0.68 6.32 0 7 C-2.64 7 -5.28 7 -8 7 C-5.42215154 4.35247996 -3.08351902 2.05567935 0 0 Z " fill="#E3B150" transform="translate(125,138)"/>
<path d="M0 0 C0.66 1.32 1.32 2.64 2 4 C1.01 5.32 0.02 6.64 -1 8 C-3 5 -3 5 -3 2 C-2.01 1.34 -1.02 0.68 0 0 Z " fill="#5F2626" transform="translate(208,61)"/>
<path d="M0 0 C1.40182371 2.61673759 2.60495559 5.0371669 3 8 C2.34 8.66 1.68 9.32 1 10 C-1.125 3.375 -1.125 3.375 0 0 Z " fill="#E4E1E2" transform="translate(102,146)"/>
<path d="M0 0 C1.9451 2.91765 2.45276317 4.62537285 3 8 C2.01 8.495 2.01 8.495 1 9 C0.63877119 7.68942607 0.28619689 6.37646376 -0.0625 5.0625 C-0.35833984 3.96615234 -0.35833984 3.96615234 -0.66015625 2.84765625 C-0.77230469 2.23792969 -0.88445312 1.62820312 -1 1 C-0.67 0.67 -0.34 0.34 0 0 Z " fill="#E5E3E3" transform="translate(83,92)"/>
<path d="M0 0 C0.33 1.32 0.66 2.64 1 4 C1.66 4 2.32 4 3 4 C2.67 4.99 2.34 5.98 2 7 C0.68 6.34 -0.64 5.68 -2 5 C-2 2 -2 2 0 0 Z " fill="#5A2322" transform="translate(52,48)"/>
</svg>
